<svg width="22" height="22" viewBox="0 0 22 22" xmlns="http://www.w3.org/2000/svg" xmlns:xlink="http://www.w3.org/1999/xlink">
    <defs>
        <path d="M2.607 4.047L11 9.815l8.386-5.763c-.12-.05-.25-.077-.387-.077H2.98c-.133 0-.26.026-.375.072zm-.148.075c-.287.176-.478.492-.478.853v10.027c0 .552.447 1 1 1h9.528c.274 0 .495.225.494.5 0 .275-.226.498-.502.498H2c-.552 0-1-.448-1-1V4c0-.552.448-1 1-1h18c.552 0 1 .448 1 1v12c0 .552-.448 1-1 1H13.468c-.27-.007-.48-.23-.474-.5.007-.277.234-.498.512-.5L19 16c.55 0 1-.448 1-1V4.975c0-.046-.004-.092-.01-.136L11 11.016 2 4.832l.46-.71zm17.526.688c-.046-.278-.207-.517-.432-.667l.432.667z"
              id="a"/>
    </defs>
    <g fill="none" fill-rule="evenodd">
        <mask id="b" fill="#fff">
            <use xlink:href="#a"/>
        </mask>
        <use fill="#007AFF" xlink:href="#a"/>
        <path d="M0 0h22v22H0z" mask="url(#b)" fill="#2D3E50"/>
    </g>
</svg>