<svg width="25" height="25" viewBox="0 0 25 25" xmlns="http://www.w3.org/2000/svg">
    <g fill="none" fill-rule="evenodd">
        <circle stroke="#2D3E50" stroke-width=".5" cx="12.5" cy="12.5" r="12.25"/>
        <path d="M11.472 14.624c0-.576.1-1.08.304-1.512.203-.432.55-.803 1.04-1.112.192-.128.413-.26.664-.4.25-.14.488-.3.712-.488.224-.187.413-.41.568-.672.155-.26.232-.573.232-.936 0-.3-.056-.563-.168-.792-.112-.23-.26-.42-.44-.576-.18-.155-.39-.272-.624-.352-.235-.08-.48-.12-.736-.12-.267 0-.52.04-.76.12-.24.08-.46.19-.664.328-.203.14-.384.3-.544.488-.16.187-.293.38-.4.584l-.944-.624c.14-.33.325-.624.56-.88.235-.256.5-.472.8-.648.3-.176.616-.31.952-.4.336-.09.68-.136 1.032-.136.395 0 .784.06 1.168.184.384.123.725.312 1.024.568.3.256.54.576.72.96.18.384.272.837.272 1.36 0 .405-.056.752-.168 1.04-.112.288-.26.54-.44.752-.18.213-.395.4-.64.56-.245.16-.5.315-.768.464-.192.107-.384.22-.576.336-.192.117-.36.26-.504.424-.144.165-.26.365-.352.6-.09.235-.136.528-.136.88h-1.184zM11.504 18v-1.856h1.184V18h-1.184z"
              fill="#2D3E50"/>
    </g>
</svg>