<svg width="24" height="30" viewBox="0 0 24 30" xmlns="http://www.w3.org/2000/svg">
    <g fill="none" fill-rule="evenodd">
        <path d="M-4 0h32v32H-4z"/>
        <g>
            <path d="M16.53 20.065c-.886 1.455-2.6 2.485-4.536 2.485-1.893 0-3.568-.984-4.466-2.388l1.246-.013c.787.863 1.965 1.4 3.22 1.4 1.29 0 2.5-.568 3.29-1.472l1.246-.013zM7.547 15.83c0-.167.133-.3.3-.3.166 0 .3.133.3.3 0 .276.223.5.5.5.276 0 .5-.224.5-.5 0-.72-.582-1.3-1.3-1.3-.72 0-1.3.58-1.3 1.3 0 .276.224.5.5.5s.5-.224.5-.5zM15.544 15.83c0-.167.134-.3.3-.3.167 0 .3.133.3.3 0 .276.224.5.5.5s.5-.224.5-.5c0-.72-.58-1.3-1.3-1.3-.718 0-1.3.58-1.3 1.3 0 .276.224.5.5.5s.5-.224.5-.5z"
                  fill="#2D3E50"/>
            <path d="M.26 13.71c2.318 0 9.12-2.396 8.987-6 0 0 1.304 4.57 14.164 4.57" stroke="#2D3E50" stroke-width=".7" stroke-linecap="round" stroke-linejoin="round"/>
            <rect stroke="#2D3E50" stroke-width=".7" x=".6" y="1.28" width="22.8" height="24.58" rx="11.4"/>
            <path stroke="#2D3E50" stroke-width=".7" stroke-linecap="round" stroke-linejoin="round" d="M16.5 25v4.5h-9V25"/>
        </g>
    </g>
</svg>