<svg version="1" xmlns="http://www.w3.org/2000/svg" width="933.333" height="933.333" viewBox="0 0 700.000000 700.000000">
    <path d="M347.7 116.6c-.1.1-3.6.4-7.7.7-7.1.6-8.9.9-15.2 2.3-1.5.3-3.1.6-3.5.6-2.2.2-15.7 5.4-22 8.4-17.7 8.4-34.9 23.2-45.9 39.4-7.7 11.3-15.3 28.9-17 39.4-.3 2.1-.8 4.8-1 6-.3 1.1-.7 11.3-.9 22.5-.2 11.2-.5 20.5-.7 20.6-.2.2-2.8.4-5.8.6-3 .1-8.6 1.1-12.3 2.2-27.8 7.7-46.3 29.4-51.4 60.2-.4 2.2-.7 48.1-.7 102v98l2.2 7.9c6.6 23.1 20.4 39.4 41.5 49.1 15.6 7.1 9.4 6.9 143.7 6.8 119.7-.1 120.6-.1 128.5-2.2 25.7-6.9 44.4-23.9 53-48.1 4.1-11.3 4.2-14 3.9-114.5-.1-53.4-.4-98.1-.6-99.5-3.1-17.2-9.6-30.3-20.4-41.5-11.5-11.9-30.1-20.4-44.6-20.5-3.1 0-4.8-.4-4.9-1.3 0-.6-.1-9.8-.3-20.2-.3-20.9-1.3-27.4-5.8-40.8-14.4-43.1-55.1-74.1-101.8-77.5-5.6-.4-10.2-.7-10.3-.6zm17.8 23.9c1.7.3 5 1.1 7.4 1.6 7.2 1.6 21.1 7.8 28.6 12.7 12.5 8.2 24.5 21.1 31.7 34.3 2.3 4.1 7.6 18.1 8.3 21.9 1.6 8.6 2.8 43.1 1.5 44.9-.3.4-42.3.7-93.5.7l-92.9-.1-.1-14c0-21.1 1-29.3 5.1-41.3 4.2-12.3 10-21.6 20.3-32.5 14-14.8 32.2-24.5 53.1-28.2 6.6-1.2 25.1-1.2 30.5 0zm107.9 140c14.1 3.3 26.9 13 33.9 25.5 7.1 12.8 6.8 7.8 6.8 113.5 0 52.2-.2 96.1-.5 97.5-1.3 6.1-3 11.6-4.1 13-.6.8-1.8 3-2.5 4.8-2 5.2-13.8 16.3-21.3 20.1-12.6 6.3-6.9 6.1-136.2 6.1-97.2 0-118.9-.3-123.2-1.4-19.3-5.1-34.1-19.8-38.9-38.8-1.4-5.4-1.6-18-1.6-100.7-.1-104.5-.3-100.2 6.3-113.3 5.8-11.6 20.9-23.1 34.2-26.4 8.1-1.9 238.9-1.9 247.1.1z"/>
    <path d="M345.5 373.7c-7.7 1.6-13.7 5.9-16.6 12-2.1 4.4-2.2 5.7-2.2 33.7l-.1 29.2 2.9 5.2c7.9 14.6 25.8 17.1 37.3 5.3 6.1-6.3 6.6-9.4 6.6-41.1 0-26.5-.1-27.7-2.3-32.2-2.2-4.7-6.8-9-11.6-10.8-3-1.2-11.1-1.9-14-1.3z"/>
</svg>