<svg xmlns="http://www.w3.org/2000/svg" width="180" height="292" viewBox="0 0 180 292">
    <g fill="none">
        <path stroke="#2D3E50" d="M144.398 83.5l19.102 18.396V83.5h-19.102zm19.102 81.746L144.79 183.5h18.71v-18.254zM31.763 183.5L14.5 166.572V183.5h17.263zM14.5 102.213L34.134 83.5H14.5v18.713z"/>
        <path stroke="#2D3E50" d="M20.5.5h139c11.046 0 20 8.954 20 20v251c0 11.046-8.954 20-20 20h-139c-11.046 0-20-8.954-20-20v-251c0-11.046 8.954-20 20-20z"/>
        <circle stroke="#000" cx="94" cy="262" r="12.5"/>
        <path stroke="#000" d="M0 237.5h180"/>
        <path stroke="#2D3E50" d="M28.5 95.5h123c1.105 0 2 .895 2 2v70c0 1.105-.895 2-2 2h-123c-1.105 0-2-.895-2-2v-70c0-1.105.895-2 2-2zM87 119.5h53M87 131.5h53M87 144.5h53"/>
        <g transform="translate(44 114.5)" stroke="#2D3E50">
            <circle cx="13" cy="12" r="11.5"/>
            <path d="M8.46 22C3.117 25.574.297 32.574 0 43h25.826c.89-8.638-1.633-15.638-7.57-21"/>
        </g>
        <path stroke="#000" d="M0 37.5h180"/>
    </g>
</svg>