<svg width="89" height="22" viewBox="0 0 89 22" xmlns="http://www.w3.org/2000/svg">
    <g fill="#2D3E50" fill-rule="evenodd">
        <path d="M10.582 4.557c0-2.082-1.885-3.77-4.05-3.77-2.164 0-4.05 1.688-4.05 3.77V5.5C1.04 5.5 0 6.626 0 8.014v5.972c0 1.39 1.17 2.514 2.613 2.514h7.838c1.444 0 2.614-1.125 2.614-2.514V8.014c0-1.388-1.038-2.514-2.482-2.514v-.943zm-7.316 0c0-1.663 1.538-3.017 3.266-3.017 1.73 0 3.266 1.354 3.266 3.017V5.5H3.266v-.943zm9.014 9.43c0 .97-.82 1.76-1.83 1.76H2.614c-1.01 0-1.83-.79-1.83-1.76V8.013c0-.97.82-1.76 1.83-1.76h7.838c1.01 0 1.83.79 1.83 1.76v5.972z"/>
        <path d="M6.532 12.57c-.45 0-.816-.35-.816-.784V10.15c0-.432.365-.72.816-.72.45 0 .817.288.817.72v1.636c0 .434-.367.785-.818.785"/>
        <g>
            <path d="M74.56 10.214C74.56 6.924 77.032 4 81.303 4c4.27 0 6.745 2.924 6.745 6.214 0 3.29-2.475 6.214-6.746 6.214-4.27 0-6.745-2.924-6.745-6.214zm1.073 0c0 2.673 1.89 5.3 5.67 5.3 3.782 0 5.673-2.627 5.673-5.3s-1.89-5.3-5.672-5.3c-3.78 0-5.67 2.627-5.67 5.3zM68.49 4.366h-2.706v.914h2.707v7.858c0 2.24.422 3.153 2.92 3.153.583 0 1.26-.02 1.82-.136v-.914c-.49.046-1.005.137-1.495.137-1.33 0-2.17-.228-2.17-1.667V5.28h3.548v-.914h-3.548V.786H68.49v3.58zm-9.918.547c-4.48 0-5.6 3.108-5.6 5.186 0 4.112 3.033 5.414 5.46 5.414 2.754 0 5.322-1.69 5.322-5.255 0-3.36-2.217-5.347-5.182-5.347zM52.038 22V4.366h1.073v2.558h.048C53.718 5.53 55.375 4 58.456 4c4.2 0 6.37 2.924 6.37 6.237 0 3.723-2.73 6.19-6.37 6.19-2.94 0-4.598-1.575-5.298-2.855h-.047V22H52.04zM47.814 2.357h1.074V0h-1.074v2.357zm0 13.706h1.074V4.366h-1.074v11.697zM43.19 2.357h1.074V0H43.19v2.357zm0 13.706h1.074V4.366H43.19v11.697zm-8.953 0h1.073V9.735c0-2.376 1.54-4.684 4.645-4.684.676 0 .98.047 1.236.138v-1.05c-.325-.092-.56-.138-.885-.138-2.334 0-4.155 1.074-4.948 3.13h-.047V4.366h-1.073v11.697zm-2.574-8.02C31.523 6.057 29.188 4 25.525 4c-3.665 0-6.745 2.216-6.745 6.33 0 3.63 2.823 6.098 6.745 6.098 3.01 0 5.672-1.394 6.302-4.455h-1.074c-.537 2.422-2.825 3.54-5.228 3.54-4.318 0-5.672-3.288-5.672-5.184 0-2.79 1.89-5.417 5.672-5.417 2.87 0 4.924 1.646 5.064 3.13h1.073z"/>
        </g>
    </g>
</svg>